<svg xmlns="http://www.w3.org/2000/svg" viewBox="0 0 100 100" width="65" height="65">
  <circle cx="50" cy="50" r="45" fill="#144d8d" stroke="#d4af37" stroke-width="2"/>
  <circle cx="50" cy="50" r="39" fill="#ffffff"/>
  
  <!-- Graduation / Bos Cap Symbol -->
  <path d="M 50,30 L 70,40 L 50,50 L 30,40 Z" fill="#144d8d"/>
  <path d="M 40,45 L 40,55 Q 50,62 60,55 L 60,45" fill="#144d8d"/>
  <path d="M 68,41 L 73,50 L 73,60" fill="none" stroke="#d4af37" stroke-width="1.5"/>
  <circle cx="73" cy="61" r="1.5" fill="#d4af37"/>
  
  <!-- Stars -->
  <polygon points="50,66 52,70 56,70 53,73 54,77 50,75 46,77 47,73 44,70 48,70" fill="#d4af37"/>
  
  <!-- Curved Text Path -->
  <path id="textPath-sicasa" d="M 18,50 A 32,32 0 1,1 82,50" fill="none"/>
  <text font-family="Arial, sans-serif" font-size="6.5" font-weight="bold" fill="#144d8d" text-anchor="middle">
    <textPath href="#textPath-sicasa" startOffset="50%">SICASA • VIJAYAWADA</textPath>
  </text>
  
  <text x="50" y="85" font-family="Arial, sans-serif" font-size="5" font-weight="bold" fill="#144d8d" text-anchor="middle">SIRC OF ICAI</text>
</svg>
